<?xml version='1.0' encoding='iso-8859-1'?>
<svg version="1.1" xmlns="http://www.w3.org/2000/svg" viewBox="0 0 338 338" xmlns:xlink="http://www.w3.org/1999/xlink" enable-background="new 0 0 338 338">
  <g>
    <g>
      <ellipse cx="282.921" cy="37.15" rx="16.877" ry="20.771"/>
      <path d="m299.5,57.875c-2.753,2.402-12.947,3.818-16.579,3.818-3.632,0-16.668-1.417-19.421-3.818-14.617,4.222-15.631,17.701-15.631,33.678h70.105c0-15.977-3.857-29.456-18.474-33.678z"/>
      <ellipse cx="282.921" cy="262.15" rx="16.877" ry="20.771"/>
      <path d="m299.5,282.874c-2.753,2.402-12.947,3.818-16.579,3.818-3.632,0-16.668-1.416-19.421-3.818-14.617,4.223-15.631,17.701-15.631,33.678h70.105c0-15.977-3.857-29.455-18.474-33.678z"/>
      <path d="m282.921,226.421c-14.334,0-27.403,5.508-37.212,14.513l-61.625-61.625c0.527-0.888 0.973-1.828 1.337-2.81 0.054-0.145 0.109-0.289 0.159-0.436 0.089-0.261 0.174-0.523 0.25-0.79 0.09-0.309 0.168-0.623 0.242-0.939 0.052-0.227 0.101-0.453 0.144-0.683 0.075-0.394 0.135-0.793 0.183-1.196 0.018-0.154 0.034-0.308 0.048-0.462 0.047-0.518 0.08-1.04 0.08-1.571s-0.032-1.053-0.08-1.571c-0.014-0.155-0.03-0.309-0.048-0.462-0.047-0.403-0.108-0.802-0.183-1.196-0.043-0.23-0.092-0.457-0.144-0.683-0.073-0.316-0.151-0.63-0.242-0.939-0.076-0.267-0.161-0.529-0.25-0.79-0.05-0.147-0.105-0.291-0.159-0.436-0.364-0.982-0.81-1.921-1.336-2.812l63.139-63.138c9.622,8.211 22.086,13.184 35.697,13.184 30.371-4.26326e-14 55.079-24.708 55.079-55.079s-24.708-55.079-55.079-55.079-55.079,24.708-55.079,55.079c0,13.612 4.974,26.077 13.185,35.699l-63.138,63.138c-0.89-0.526-1.83-0.972-2.812-1.336-0.145-0.054-0.289-0.109-0.436-0.159-0.261-0.089-0.523-0.174-0.79-0.25-0.309-0.09-0.623-0.168-0.939-0.242-0.227-0.052-0.453-0.101-0.683-0.144-0.394-0.075-0.793-0.135-1.196-0.183-0.154-0.018-0.308-0.034-0.462-0.048-0.518-0.047-1.04-0.08-1.571-0.08s-1.053,0.032-1.571,0.08c-0.155,0.014-0.309,0.03-0.462,0.048-0.403,0.047-0.802,0.108-1.196,0.183-0.229,0.043-0.457,0.092-0.683,0.144-0.316,0.073-0.63,0.151-0.939,0.242-0.267,0.076-0.529,0.161-0.79,0.25-0.147,0.05-0.291,0.105-0.436,0.159-0.982,0.364-1.921,0.81-2.812,1.336l-63.137-63.139c8.211-9.622 13.185-22.087 13.185-35.698 0-30.371-24.708-55.079-55.079-55.079s-55.08,24.708-55.08,55.079 24.708,55.079 55.079,55.079c13.611,0 26.076-4.974 35.698-13.185l63.138,63.137c-0.526,0.89-0.972,1.83-1.336,2.812-0.054,0.145-0.109,0.289-0.159,0.436-0.089,0.261-0.174,0.523-0.25,0.79-0.09,0.309-0.168,0.623-0.242,0.939-0.052,0.227-0.101,0.453-0.144,0.683-0.075,0.394-0.135,0.793-0.183,1.196-0.018,0.154-0.034,0.308-0.048,0.462-0.047,0.518-0.08,1.04-0.08,1.571s0.032,1.053 0.08,1.571c0.014,0.155 0.03,0.309 0.048,0.462 0.047,0.403 0.108,0.802 0.183,1.196 0.043,0.23 0.092,0.457 0.144,0.683 0.073,0.316 0.151,0.63 0.242,0.939 0.076,0.267 0.161,0.529 0.25,0.79 0.05,0.147 0.105,0.291 0.159,0.436 0.364,0.982 0.81,1.921 1.336,2.812l-61.625,61.625c-9.809-9.005-22.877-14.513-37.211-14.513-30.371,0-55.079,24.708-55.079,55.079s24.708,55.079 55.079,55.079 55.079-24.708 55.079-55.079c0-12.888-4.461-24.746-11.904-34.139l61.856-61.857c0.89,0.526 1.83,0.972 2.812,1.336 0.145,0.054 0.289,0.109 0.436,0.159 0.261,0.089 0.523,0.174 0.79,0.25 0.309,0.09 0.623,0.168 0.939,0.242 0.227,0.052 0.454,0.101 0.683,0.144 0.394,0.075 0.793,0.135 1.196,0.183 0.154,0.018 0.308,0.034 0.462,0.048 0.518,0.047 1.04,0.08 1.571,0.08s1.053-0.032 1.571-0.08c0.155-0.014 0.309-0.03 0.462-0.048 0.403-0.047 0.802-0.108 1.196-0.183 0.23-0.043 0.457-0.092 0.683-0.144 0.316-0.073 0.63-0.151 0.939-0.242 0.267-0.076 0.529-0.161 0.79-0.25 0.147-0.05 0.291-0.105 0.436-0.159 0.982-0.364 1.921-0.81 2.812-1.336l61.857,61.857c-7.443,9.393-11.904,21.251-11.904,34.139 0,30.371 24.708,55.079 55.079,55.079 30.371,0 55.08-24.708 55.08-55.079s-24.708-55.079-55.079-55.079zm0-220c27.613,7.99361e-15 50.079,22.465 50.079,50.079s-22.466,50.079-50.079,50.079c-27.613,0-50.079-22.465-50.079-50.079s22.466-50.079 50.079-50.079zm-277.921,50.079c0-27.614 22.465-50.079 50.079-50.079s50.079,22.465 50.079,50.079c0,13.753-5.575,26.226-14.58,35.285-0.344-15.032-4.486-27.51-18.447-31.542-2.753,2.402-12.947,3.818-16.579,3.818s-16.668-1.417-19.421-3.818c-14.235,4.112-15.568,17.004-15.628,32.432-9.542-9.124-15.503-21.962-15.503-36.175zm16.848,37.421h66.462c-8.848,7.866-20.488,12.658-33.231,12.658s-24.383-4.792-33.231-12.658zm0,225h66.462c-8.848,7.866-20.488,12.658-33.231,12.658s-24.382-4.792-33.231-12.658zm68.73-2.136c-0.344-15.032-4.486-27.509-18.447-31.542-2.753,2.402-12.947,3.818-16.579,3.818s-16.668-1.416-19.421-3.818c-14.235,4.113-15.568,17.004-15.628,32.432-9.542-9.124-15.503-21.963-15.503-36.175 0-27.613 22.465-50.079 50.079-50.079s50.079,22.466 50.079,50.079c0,13.753-5.575,26.226-14.58,35.285zm192.343,14.794c-27.613,0-50.079-22.466-50.079-50.079s22.466-50.079 50.079-50.079c27.613,0 50.079,22.466 50.079,50.079 0,27.613-22.466,50.079-50.079,50.079z"/>
      <ellipse cx="55.553" cy="39.518" rx="16.877" ry="20.771"/>
      <ellipse cx="55.553" cy="264.519" rx="16.877" ry="20.771"/>
    </g>
  </g>
</svg>
